<svg xmlns="http://www.w3.org/2000/svg" width="760.0" height="430.0" viewBox="0 0 760.0 430.0" role="img">
<style>
text { font-family: -apple-system, BlinkMacSystemFont, "Segoe UI", sans-serif; fill: #222; }
.title { font-size: 20px; font-weight: 650; }
.label { font-size: 13px; }
.tick { font-size: 12px; fill: #444; }
.grid { stroke: #e5e7eb; stroke-width: 1; }
.axis { stroke: #333; stroke-width: 1.4; }
</style>
<rect width="100%" height="100%" fill="#ffffff"/>
<text x="380.0" y="28" text-anchor="middle" class="title">Anisotropic chain component weights</text>
<rect x="78.0" y="54.0" width="648.0" height="308.0" fill="none" class="axis"/>
<line x1="78.0" x2="726.0" y1="362.0" y2="362.0" class="grid"/>
<text x="68.0" y="366.0" text-anchor="end" class="tick">-0.02828</text>
<line x1="78.0" x2="726.0" y1="285.0" y2="285.0" class="grid"/>
<text x="68.0" y="289.0" text-anchor="end" class="tick">0.1697</text>
<line x1="78.0" x2="726.0" y1="208.0" y2="208.0" class="grid"/>
<text x="68.0" y="212.0" text-anchor="end" class="tick">0.3677</text>
<line x1="78.0" x2="726.0" y1="131.0" y2="131.0" class="grid"/>
<text x="68.0" y="135.0" text-anchor="end" class="tick">0.5657</text>
<line x1="78.0" x2="726.0" y1="54.0" y2="54.0" class="grid"/>
<text x="68.0" y="58.0" text-anchor="end" class="tick">0.7637</text>
<line x1="78.0" x2="78.0" y1="54.0" y2="362.0" class="grid"/>
<text x="78.0" y="386.0" text-anchor="middle" class="tick">Γ</text>
<line x1="726.0" x2="726.0" y1="54.0" y2="362.0" class="grid"/>
<text x="726.0" y="386.0" text-anchor="middle" class="tick">X</text>
<text x="380.0" y="412.0" text-anchor="middle" class="label">q-path</text>
<text x="22" y="208.0" text-anchor="middle" transform="rotate(-90 22 208.0)" class="label">correlation weight</text>
<polyline points="78.0,213.5 86.1,213.4 94.2,213.0 102.3,212.3 110.4,211.4 118.5,210.3 126.6,209.0 134.7,207.5 142.8,205.9 150.9,204.1 159.0,202.2 167.1,200.3 175.2,198.2 183.3,196.2 191.4,194.1 199.5,192.1 207.6,190.0 215.7,188.0 223.8,186.0 231.9,184.0 240.0,182.1 248.1,180.3 256.2,178.5 264.3,176.7 272.4,175.1 280.5,173.5 288.6,172.0 296.7,170.5 304.8,169.1 312.9,167.7 321.0,166.5 329.1,165.2 337.2,164.1 345.3,163.0 353.4,161.9 361.5,160.9 369.6,159.9 377.7,159.0 385.8,158.2 393.9,157.3 402.0,156.5 410.1,155.8 418.2,155.1 426.3,154.4 434.4,153.8 442.5,153.2 450.6,152.6 458.7,152.1 466.8,151.5 474.9,151.1 483.0,150.6 491.1,150.1 499.2,149.7 507.3,149.3 515.4,149.0 523.5,148.6 531.6,148.3 539.7,148.0 547.8,147.7 555.9,147.4 564.0,147.1 572.1,146.9 580.2,146.6 588.3,146.4 596.4,146.2 604.5,146.0 612.6,145.9 620.7,145.7 628.8,145.6 636.9,145.4 645.0,145.3 653.1,145.2 661.2,145.1 669.3,145.0 677.4,145.0 685.5,144.9 693.6,144.8 701.7,144.8 709.8,144.8 717.9,144.8 726.0,144.8" fill="none" stroke="#2864a6" stroke-width="2.4" stroke-linejoin="round" stroke-linecap="round"/>
<polyline points="78.0,76.0 86.1,76.26 94.2,77.05 102.3,78.33 110.4,80.06 118.5,82.2 126.6,84.69 134.7,87.46 142.8,90.45 150.9,93.6 159.0,96.85 167.1,100.2 175.2,103.5 183.3,106.7 191.4,110.0 199.5,113.1 207.6,116.1 215.7,119.1 223.8,121.9 231.9,124.6 240.0,127.1 248.1,129.5 256.2,131.8 264.3,134.0 272.4,136.1 280.5,138.0 288.6,139.8 296.7,141.5 304.8,143.1 312.9,144.7 321.0,146.1 329.1,147.5 337.2,148.7 345.3,149.9 353.4,151.0 361.5,152.1 369.6,153.1 377.7,154.0 385.8,154.9 393.9,155.8 402.0,156.5 410.1,157.3 418.2,158.0 426.3,158.6 434.4,159.3 442.5,159.9 450.6,160.4 458.7,160.9 466.8,161.4 474.9,161.9 483.0,162.3 491.1,162.7 499.2,163.1 507.3,163.5 515.4,163.8 523.5,164.2 531.6,164.5 539.7,164.8 547.8,165.0 555.9,165.3 564.0,165.5 572.1,165.8 580.2,166.0 588.3,166.2 596.4,166.3 604.5,166.5 612.6,166.7 620.7,166.8 628.8,166.9 636.9,167.1 645.0,167.2 653.1,167.3 661.2,167.3 669.3,167.4 677.4,167.5 685.5,167.5 693.6,167.6 701.7,167.6 709.8,167.6 717.9,167.7 726.0,167.7" fill="none" stroke="#c43c39" stroke-width="2.4" stroke-linejoin="round" stroke-linecap="round"/>
<rect x="592.0" y="46.0" width="126" height="54.0" rx="5" fill="#ffffff" stroke="#d1d5db"/>
<line x1="600.0" x2="622.0" y1="62.0" y2="62.0" stroke="#2864a6" stroke-width="2.4"/>
<text x="630.0" y="66.0" class="tick">Sxx</text>
<line x1="600.0" x2="622.0" y1="84.0" y2="84.0" stroke="#c43c39" stroke-width="2.4"/>
<text x="630.0" y="88.0" class="tick">Syy</text>
</svg>
