<svg xmlns="http://www.w3.org/2000/svg" width="760.0" height="430.0" viewBox="0 0 760.0 430.0" role="img">
<style>
text { font-family: -apple-system, BlinkMacSystemFont, "Segoe UI", sans-serif; fill: #222; }
.title { font-size: 20px; font-weight: 650; }
.label { font-size: 13px; }
.tick { font-size: 12px; fill: #444; }
.grid { stroke: #e5e7eb; stroke-width: 1; }
.axis { stroke: #333; stroke-width: 1.4; }
</style>
<rect width="100%" height="100%" fill="#ffffff"/>
<text x="380.0" y="28" text-anchor="middle" class="title">Anisotropic ferromagnetic chain dispersion</text>
<rect x="78.0" y="54.0" width="648.0" height="308.0" fill="none" class="axis"/>
<line x1="78.0" x2="726.0" y1="362.0" y2="362.0" class="grid"/>
<text x="68.0" y="366.0" text-anchor="end" class="tick">-0.6788</text>
<line x1="78.0" x2="726.0" y1="285.0" y2="285.0" class="grid"/>
<text x="68.0" y="289.0" text-anchor="end" class="tick">4.073</text>
<line x1="78.0" x2="726.0" y1="208.0" y2="208.0" class="grid"/>
<text x="68.0" y="212.0" text-anchor="end" class="tick">8.825</text>
<line x1="78.0" x2="726.0" y1="131.0" y2="131.0" class="grid"/>
<text x="68.0" y="135.0" text-anchor="end" class="tick">13.58</text>
<line x1="78.0" x2="726.0" y1="54.0" y2="54.0" class="grid"/>
<text x="68.0" y="58.0" text-anchor="end" class="tick">18.33</text>
<line x1="78.0" x2="78.0" y1="54.0" y2="362.0" class="grid"/>
<text x="78.0" y="386.0" text-anchor="middle" class="tick">Γ</text>
<line x1="726.0" x2="726.0" y1="54.0" y2="362.0" class="grid"/>
<text x="726.0" y="386.0" text-anchor="middle" class="tick">X</text>
<text x="380.0" y="412.0" text-anchor="middle" class="label">q-path</text>
<text x="22" y="208.0" text-anchor="middle" transform="rotate(-90 22 208.0)" class="label">energy</text>
<polyline points="78.0,305.2 86.1,305.1 94.2,304.8 102.3,304.3 110.4,303.6 118.5,302.8 126.6,301.7 134.7,300.5 142.8,299.1 150.9,297.5 159.0,295.7 167.1,293.8 175.2,291.8 183.3,289.5 191.4,287.1 199.5,284.6 207.6,282.0 215.7,279.2 223.8,276.2 231.9,273.2 240.0,270.0 248.1,266.7 256.2,263.3 264.3,259.7 272.4,256.1 280.5,252.4 288.6,248.6 296.7,244.7 304.8,240.7 312.9,236.6 321.0,232.5 329.1,228.3 337.2,224.1 345.3,219.8 353.4,215.5 361.5,211.1 369.6,206.7 377.7,202.3 385.8,197.9 393.9,193.4 402.0,189.0 410.1,184.5 418.2,180.1 426.3,175.6 434.4,171.2 442.5,166.9 450.6,162.5 458.7,158.2 466.8,154.0 474.9,149.8 483.0,145.6 491.1,141.6 499.2,137.6 507.3,133.7 515.4,129.8 523.5,126.1 531.6,122.5 539.7,118.9 547.8,115.5 555.9,112.2 564.0,109.0 572.1,105.9 580.2,103.0 588.3,100.2 596.4,97.53 604.5,94.99 612.6,92.61 620.7,90.37 628.8,88.28 636.9,86.35 645.0,84.58 653.1,82.96 661.2,81.52 669.3,80.23 677.4,79.11 685.5,78.17 693.6,77.39 701.7,76.78 709.8,76.35 717.9,76.09 726.0,76.0" fill="none" stroke="#2864a6" stroke-width="2.4" stroke-linejoin="round" stroke-linecap="round"/>
<rect x="592.0" y="46.0" width="126" height="32.0" rx="5" fill="#ffffff" stroke="#d1d5db"/>
<line x1="600.0" x2="622.0" y1="62.0" y2="62.0" stroke="#2864a6" stroke-width="2.4"/>
<text x="630.0" y="66.0" class="tick">mode 1</text>
</svg>
