<svg xmlns="http://www.w3.org/2000/svg" width="760.0" height="430.0" viewBox="0 0 760.0 430.0" role="img">
<style>
text { font-family: -apple-system, BlinkMacSystemFont, "Segoe UI", sans-serif; fill: #222; }
.title { font-size: 20px; font-weight: 650; }
.label { font-size: 13px; }
.tick { font-size: 12px; fill: #444; }
.grid { stroke: #e5e7eb; stroke-width: 1; }
.axis { stroke: #333; stroke-width: 1.4; }
</style>
<rect width="100%" height="100%" fill="#ffffff"/>
<text x="380.0" y="28" text-anchor="middle" class="title">Antiferromagnetic chain dispersion</text>
<rect x="78.0" y="54.0" width="648.0" height="308.0" fill="none" class="axis"/>
<line x1="78.0" x2="726.0" y1="362.0" y2="362.0" class="grid"/>
<text x="68.0" y="366.0" text-anchor="end" class="tick">-0.08</text>
<line x1="78.0" x2="726.0" y1="285.0" y2="285.0" class="grid"/>
<text x="68.0" y="289.0" text-anchor="end" class="tick">0.48</text>
<line x1="78.0" x2="726.0" y1="208.0" y2="208.0" class="grid"/>
<text x="68.0" y="212.0" text-anchor="end" class="tick">1.04</text>
<line x1="78.0" x2="726.0" y1="131.0" y2="131.0" class="grid"/>
<text x="68.0" y="135.0" text-anchor="end" class="tick">1.6</text>
<line x1="78.0" x2="726.0" y1="54.0" y2="54.0" class="grid"/>
<text x="68.0" y="58.0" text-anchor="end" class="tick">2.16</text>
<line x1="78.0" x2="78.0" y1="54.0" y2="362.0" class="grid"/>
<text x="78.0" y="386.0" text-anchor="middle" class="tick">near Γ</text>
<line x1="726.0" x2="726.0" y1="54.0" y2="362.0" class="grid"/>
<text x="726.0" y="386.0" text-anchor="middle" class="tick">X</text>
<text x="380.0" y="412.0" text-anchor="middle" class="label">q-path</text>
<text x="22" y="208.0" text-anchor="middle" transform="rotate(-90 22 208.0)" class="label">energy</text>
<polyline points="78.0,333.7 86.1,328.6 94.2,323.4 102.3,318.2 110.4,313.1 118.5,308.0 126.6,302.9 134.7,297.8 142.8,292.7 150.9,287.6 159.0,282.6 167.1,277.6 175.2,272.6 183.3,267.7 191.4,262.7 199.5,257.8 207.6,253.0 215.7,248.2 223.8,243.4 231.9,238.6 240.0,233.9 248.1,229.2 256.2,224.6 264.3,220.0 272.4,215.5 280.5,211.0 288.6,206.6 296.7,202.2 304.8,197.9 312.9,193.6 321.0,189.4 329.1,185.2 337.2,181.1 345.3,177.0 353.4,173.1 361.5,169.1 369.6,165.3 377.7,161.5 385.8,157.8 393.9,154.1 402.0,150.5 410.1,147.0 418.2,143.6 426.3,140.2 434.4,136.9 442.5,133.7 450.6,130.6 458.7,127.5 466.8,124.5 474.9,121.6 483.0,118.8 491.1,116.1 499.2,113.4 507.3,110.9 515.4,108.4 523.5,106.0 531.6,103.7 539.7,101.4 547.8,99.31 555.9,97.26 564.0,95.31 572.1,93.45 580.2,91.68 588.3,90.0 596.4,88.41 604.5,86.92 612.6,85.52 620.7,84.22 628.8,83.01 636.9,81.89 645.0,80.87 653.1,79.95 661.2,79.12 669.3,78.39 677.4,77.76 685.5,77.22 693.6,76.78 701.7,76.44 709.8,76.2 717.9,76.05 726.0,76.0" fill="none" stroke="#2864a6" stroke-width="2.4" stroke-linejoin="round" stroke-linecap="round"/>
<polyline points="78.0,333.7 86.1,328.6 94.2,323.4 102.3,318.2 110.4,313.1 118.5,308.0 126.6,302.9 134.7,297.8 142.8,292.7 150.9,287.6 159.0,282.6 167.1,277.6 175.2,272.6 183.3,267.7 191.4,262.7 199.5,257.8 207.6,253.0 215.7,248.2 223.8,243.4 231.9,238.6 240.0,233.9 248.1,229.2 256.2,224.6 264.3,220.0 272.4,215.5 280.5,211.0 288.6,206.6 296.7,202.2 304.8,197.9 312.9,193.6 321.0,189.4 329.1,185.2 337.2,181.1 345.3,177.0 353.4,173.1 361.5,169.1 369.6,165.3 377.7,161.5 385.8,157.8 393.9,154.1 402.0,150.5 410.1,147.0 418.2,143.6 426.3,140.2 434.4,136.9 442.5,133.7 450.6,130.6 458.7,127.5 466.8,124.5 474.9,121.6 483.0,118.8 491.1,116.1 499.2,113.4 507.3,110.9 515.4,108.4 523.5,106.0 531.6,103.7 539.7,101.4 547.8,99.31 555.9,97.26 564.0,95.31 572.1,93.45 580.2,91.68 588.3,90.0 596.4,88.41 604.5,86.92 612.6,85.52 620.7,84.22 628.8,83.01 636.9,81.89 645.0,80.87 653.1,79.95 661.2,79.12 669.3,78.39 677.4,77.76 685.5,77.22 693.6,76.78 701.7,76.44 709.8,76.2 717.9,76.05 726.0,76.0" fill="none" stroke="#c43c39" stroke-width="2.4" stroke-linejoin="round" stroke-linecap="round"/>
<rect x="592.0" y="46.0" width="126" height="54.0" rx="5" fill="#ffffff" stroke="#d1d5db"/>
<line x1="600.0" x2="622.0" y1="62.0" y2="62.0" stroke="#2864a6" stroke-width="2.4"/>
<text x="630.0" y="66.0" class="tick">mode 1</text>
<line x1="600.0" x2="622.0" y1="84.0" y2="84.0" stroke="#c43c39" stroke-width="2.4"/>
<text x="630.0" y="88.0" class="tick">mode 2</text>
</svg>
