<svg xmlns="http://www.w3.org/2000/svg" width="760.0" height="430.0" viewBox="0 0 760.0 430.0" role="img">
<style>
text { font-family: -apple-system, BlinkMacSystemFont, "Segoe UI", sans-serif; fill: #222; }
.title { font-size: 20px; font-weight: 650; }
.label { font-size: 13px; }
.tick { font-size: 12px; fill: #444; }
.grid { stroke: #e5e7eb; stroke-width: 1; }
.axis { stroke: #333; stroke-width: 1.4; }
</style>
<rect width="100%" height="100%" fill="#ffffff"/>
<text x="380.0" y="28" text-anchor="middle" class="title">Ferromagnetic chain dispersion</text>
<rect x="78.0" y="54.0" width="648.0" height="308.0" fill="none" class="axis"/>
<line x1="78.0" x2="726.0" y1="362.0" y2="362.0" class="grid"/>
<text x="68.0" y="366.0" text-anchor="end" class="tick">-0.16</text>
<line x1="78.0" x2="726.0" y1="285.0" y2="285.0" class="grid"/>
<text x="68.0" y="289.0" text-anchor="end" class="tick">0.96</text>
<line x1="78.0" x2="726.0" y1="208.0" y2="208.0" class="grid"/>
<text x="68.0" y="212.0" text-anchor="end" class="tick">2.08</text>
<line x1="78.0" x2="726.0" y1="131.0" y2="131.0" class="grid"/>
<text x="68.0" y="135.0" text-anchor="end" class="tick">3.2</text>
<line x1="78.0" x2="726.0" y1="54.0" y2="54.0" class="grid"/>
<text x="68.0" y="58.0" text-anchor="end" class="tick">4.32</text>
<line x1="78.0" x2="78.0" y1="54.0" y2="362.0" class="grid"/>
<text x="78.0" y="386.0" text-anchor="middle" class="tick">Γ</text>
<line x1="726.0" x2="726.0" y1="54.0" y2="362.0" class="grid"/>
<text x="726.0" y="386.0" text-anchor="middle" class="tick">X</text>
<text x="380.0" y="412.0" text-anchor="middle" class="label">q-path</text>
<text x="22" y="208.0" text-anchor="middle" transform="rotate(-90 22 208.0)" class="label">energy</text>
<polyline points="78.0,351.0 84.48,350.9 90.96,350.7 97.44,350.4 103.9,349.9 110.4,349.3 116.9,348.6 123.4,347.7 129.8,346.7 136.3,345.5 142.8,344.3 149.3,342.9 155.8,341.3 162.2,339.7 168.7,337.9 175.2,336.0 181.7,334.0 188.2,331.9 194.6,329.6 201.1,327.2 207.6,324.7 214.1,322.1 220.6,319.4 227.0,316.6 233.5,313.7 240.0,310.7 246.5,307.6 253.0,304.4 259.4,301.1 265.9,297.8 272.4,294.3 278.9,290.8 285.4,287.2 291.8,283.5 298.3,279.7 304.8,275.9 311.3,272.0 317.8,268.1 324.2,264.1 330.7,260.1 337.2,256.0 343.7,251.9 350.2,247.7 356.6,243.5 363.1,239.3 369.6,235.0 376.1,230.7 382.6,226.4 389.0,222.1 395.5,217.8 402.0,213.5 408.5,209.2 415.0,204.9 421.4,200.6 427.9,196.3 434.4,192.0 440.9,187.7 447.4,183.5 453.8,179.3 460.3,175.1 466.8,171.0 473.3,166.9 479.8,162.9 486.2,158.9 492.7,155.0 499.2,151.1 505.7,147.3 512.2,143.5 518.6,139.8 525.1,136.2 531.6,132.7 538.1,129.2 544.6,125.9 551.0,122.6 557.5,119.4 564.0,116.3 570.5,113.3 577.0,110.4 583.4,107.6 589.9,104.9 596.4,102.3 602.9,99.78 609.4,97.4 615.8,95.15 622.3,93.01 628.8,90.99 635.3,89.09 641.8,87.31 648.2,85.66 654.7,84.13 661.2,82.73 667.7,81.46 674.2,80.32 680.6,79.31 687.1,78.44 693.6,77.69 700.1,77.08 706.6,76.61 713.0,76.27 719.5,76.07 726.0,76.0" fill="none" stroke="#2864a6" stroke-width="2.4" stroke-linejoin="round" stroke-linecap="round"/>
<rect x="592.0" y="46.0" width="126" height="32.0" rx="5" fill="#ffffff" stroke="#d1d5db"/>
<line x1="600.0" x2="622.0" y1="62.0" y2="62.0" stroke="#2864a6" stroke-width="2.4"/>
<text x="630.0" y="66.0" class="tick">mode 1</text>
</svg>
