<svg xmlns="http://www.w3.org/2000/svg" width="760.0" height="430.0" viewBox="0 0 760.0 430.0" role="img">
<style>
text { font-family: -apple-system, BlinkMacSystemFont, "Segoe UI", sans-serif; fill: #222; }
.title { font-size: 20px; font-weight: 650; }
.label { font-size: 13px; }
.tick { font-size: 12px; fill: #444; }
.grid { stroke: #e5e7eb; stroke-width: 1; }
.axis { stroke: #333; stroke-width: 1.4; }
</style>
<rect width="100%" height="100%" fill="#ffffff"/>
<text x="380.0" y="28" text-anchor="middle" class="title">Square-lattice antiferromagnet dispersion</text>
<rect x="78.0" y="54.0" width="648.0" height="308.0" fill="none" class="axis"/>
<line x1="78.0" x2="726.0" y1="362.0" y2="362.0" class="grid"/>
<text x="68.0" y="366.0" text-anchor="end" class="tick">-0.16</text>
<line x1="78.0" x2="726.0" y1="285.0" y2="285.0" class="grid"/>
<text x="68.0" y="289.0" text-anchor="end" class="tick">0.96</text>
<line x1="78.0" x2="726.0" y1="208.0" y2="208.0" class="grid"/>
<text x="68.0" y="212.0" text-anchor="end" class="tick">2.08</text>
<line x1="78.0" x2="726.0" y1="131.0" y2="131.0" class="grid"/>
<text x="68.0" y="135.0" text-anchor="end" class="tick">3.2</text>
<line x1="78.0" x2="726.0" y1="54.0" y2="54.0" class="grid"/>
<text x="68.0" y="58.0" text-anchor="end" class="tick">4.32</text>
<line x1="78.0" x2="78.0" y1="54.0" y2="362.0" class="grid"/>
<text x="78.0" y="386.0" text-anchor="middle" class="tick">near Γ</text>
<line x1="294.0" x2="294.0" y1="54.0" y2="362.0" class="grid"/>
<text x="294.0" y="386.0" text-anchor="middle" class="tick">X</text>
<line x1="510.0" x2="510.0" y1="54.0" y2="362.0" class="grid"/>
<text x="510.0" y="386.0" text-anchor="middle" class="tick">M</text>
<line x1="726.0" x2="726.0" y1="54.0" y2="362.0" class="grid"/>
<text x="726.0" y="386.0" text-anchor="middle" class="tick">near Γ</text>
<text x="380.0" y="412.0" text-anchor="middle" class="label">q-path</text>
<text x="22" y="208.0" text-anchor="middle" transform="rotate(-90 22 208.0)" class="label">energy</text>
<polyline points="78.0,308.0 83.4,298.4 88.8,288.9 94.2,279.5 99.6,270.1 105.0,260.9 110.4,251.8 115.8,242.8 121.2,233.9 126.6,225.2 132.0,216.6 137.4,208.2 142.8,200.0 148.2,192.0 153.6,184.2 159.0,176.5 164.4,169.1 169.8,162.0 175.2,155.0 180.6,148.3 186.0,141.9 191.4,135.7 196.8,129.8 202.2,124.2 207.6,118.8 213.0,113.7 218.4,109.0 223.8,104.5 229.2,100.4 234.6,96.52 240.0,93.0 245.4,89.8 250.8,86.92 256.2,84.37 261.6,82.16 267.0,80.28 272.4,78.74 277.8,77.54 283.2,76.69 288.6,76.17 294.0,76.0 299.4,76.0 304.8,76.0 310.2,76.0 315.6,76.0 321.0,76.0 326.4,76.0 331.8,76.0 337.2,76.0 342.6,76.0 348.0,76.0 353.4,76.0 358.8,76.0 364.2,76.0 369.6,76.0 375.0,76.0 380.4,76.0 385.8,76.0 391.2,76.0 396.6,76.0 402.0,76.0 407.4,76.0 412.8,76.0 418.2,76.0 423.6,76.0 429.0,76.0 434.4,76.0 439.8,76.0 445.2,76.0 450.6,76.0 456.0,76.0 461.4,76.0 466.8,76.0 472.2,76.0 477.6,76.0 483.0,76.0 488.4,76.0 493.8,76.0 499.2,76.0 504.6,76.0 510.0,76.0 515.4,76.0 520.8,76.0 526.2,76.02 531.6,76.07 537.0,76.16 542.4,76.33 547.8,76.61 553.2,77.02 558.6,77.62 564.0,78.42 569.4,79.48 574.8,80.84 580.2,82.53 585.6,84.6 591.0,87.07 596.4,90.0 601.8,93.39 607.2,97.3 612.6,101.7 618.0,106.7 623.4,112.3 628.8,118.4 634.2,125.1 639.6,132.4 645.0,140.3 650.4,148.8 655.8,157.9 661.2,167.5 666.6,177.6 672.0,188.3 677.4,199.4 682.8,210.9 688.2,222.9 693.6,235.1 699.0,247.6 704.4,260.3 709.8,273.0 715.2,285.4 720.6,297.4 726.0,308.0" fill="none" stroke="#2864a6" stroke-width="2.4" stroke-linejoin="round" stroke-linecap="round"/>
<polyline points="78.0,308.0 83.4,298.4 88.8,288.9 94.2,279.5 99.6,270.1 105.0,260.9 110.4,251.8 115.8,242.8 121.2,233.9 126.6,225.2 132.0,216.6 137.4,208.2 142.8,200.0 148.2,192.0 153.6,184.2 159.0,176.5 164.4,169.1 169.8,162.0 175.2,155.0 180.6,148.3 186.0,141.9 191.4,135.7 196.8,129.8 202.2,124.2 207.6,118.8 213.0,113.7 218.4,109.0 223.8,104.5 229.2,100.4 234.6,96.52 240.0,93.0 245.4,89.8 250.8,86.92 256.2,84.37 261.6,82.16 267.0,80.28 272.4,78.74 277.8,77.54 283.2,76.69 288.6,76.17 294.0,76.0 299.4,76.0 304.8,76.0 310.2,76.0 315.6,76.0 321.0,76.0 326.4,76.0 331.8,76.0 337.2,76.0 342.6,76.0 348.0,76.0 353.4,76.0 358.8,76.0 364.2,76.0 369.6,76.0 375.0,76.0 380.4,76.0 385.8,76.0 391.2,76.0 396.6,76.0 402.0,76.0 407.4,76.0 412.8,76.0 418.2,76.0 423.6,76.0 429.0,76.0 434.4,76.0 439.8,76.0 445.2,76.0 450.6,76.0 456.0,76.0 461.4,76.0 466.8,76.0 472.2,76.0 477.6,76.0 483.0,76.0 488.4,76.0 493.8,76.0 499.2,76.0 504.6,76.0 510.0,76.0 515.4,76.0 520.8,76.0 526.2,76.02 531.6,76.07 537.0,76.16 542.4,76.33 547.8,76.61 553.2,77.02 558.6,77.62 564.0,78.42 569.4,79.48 574.8,80.84 580.2,82.53 585.6,84.6 591.0,87.07 596.4,90.0 601.8,93.39 607.2,97.3 612.6,101.7 618.0,106.7 623.4,112.3 628.8,118.4 634.2,125.1 639.6,132.4 645.0,140.3 650.4,148.8 655.8,157.9 661.2,167.5 666.6,177.6 672.0,188.3 677.4,199.4 682.8,210.9 688.2,222.9 693.6,235.1 699.0,247.6 704.4,260.3 709.8,273.0 715.2,285.4 720.6,297.4 726.0,308.0" fill="none" stroke="#c43c39" stroke-width="2.4" stroke-linejoin="round" stroke-linecap="round"/>
<rect x="592.0" y="46.0" width="126" height="54.0" rx="5" fill="#ffffff" stroke="#d1d5db"/>
<line x1="600.0" x2="622.0" y1="62.0" y2="62.0" stroke="#2864a6" stroke-width="2.4"/>
<text x="630.0" y="66.0" class="tick">mode 1</text>
<line x1="600.0" x2="622.0" y1="84.0" y2="84.0" stroke="#c43c39" stroke-width="2.4"/>
<text x="630.0" y="88.0" class="tick">mode 2</text>
</svg>
